<svg width="1016" height="1185" viewBox="0 0 1016 1185" fill="none" xmlns="http://www.w3.org/2000/svg">
  <path
    d="M507.989 8C457.004 8 415.674 49.5134 415.674 100.721C415.674 151.929 457.004 193.443 507.989 193.443C558.974 193.443 600.304 151.929 600.304 100.721C600.304 49.5134 558.974 8 507.989 8Z"
    stroke="black" stroke-width="15" />
  <path
    d="M464.416 285.383H189.188V381.296H279.785L279.798 470.309L145.614 470.315C119.621 470.315 98.5974 491.813 98.5974 518.272C98.5974 544.731 119.621 566.228 145.614 566.228L279.798 566.216L279.785 840.161H189.188V936.074H464.416V840.161H373.831L373.82 658.678H460.98V703.185C460.98 729.644 482.004 751.141 507.997 751.141C533.99 751.141 555.014 729.644 555.014 703.185L555.02 658.678H642.18L642.168 840.161H551.584V936.074H826.812V840.161H736.202V381.296H826.812V285.383H551.584V381.296H642.18L642.168 562.766H555.02L555.014 518.272C555.014 491.813 533.99 470.315 507.997 470.315C482.004 470.315 460.98 491.813 460.98 518.272V562.766H373.831V381.296H464.416V285.383Z"
    stroke="black" stroke-width="15" />
  <path
    d="M960.983 470.315H823.369V566.228H960.983C986.976 566.228 1008 544.731 1008 518.272C1008 491.813 986.976 470.315 960.983 470.315Z"
    stroke="black" stroke-width="15" />
  <path
    d="M145.614 655.229H8V751.141H145.614C171.607 751.141 192.631 729.644 192.631 703.185C192.631 676.726 171.607 655.229 145.614 655.229Z"
    stroke="black" stroke-width="15" />
  <path
    d="M960.983 655.229H823.369V751.141H960.983C986.976 751.141 1008 729.644 1008 703.185C1008 676.726 986.976 655.229 960.983 655.229Z"
    stroke="black" stroke-width="15" />
  <path d="M507.997 1169L589.408 1025.09H426.586L507.997 1169Z" stroke="black" stroke-width="15" />
</svg>